{"title":"Into The Wild 2007 BigPerm LKRG Read NFO","uid":6567179,"size":1303502546,"categoryP":"video","categoryS":"movies","magnet":"?xt=urn:btih:935a50b980338bc19ef903013967b082b01ec44c&amp;dn=Into+The+Wild+2007+BigPerm+LKRG+Read+NFO&amp;tr=udp%3A%2F%2Ftracker.openbittorrent.com%3A80&amp;tr=udp%3A%2F%2Fopen.demonii.com%3A1337&amp;tr=udp%3A%2F%2Ftracker.coppersurfer.tk%3A6969&amp;tr=udp%3A%2F%2Fexodus.desync.com%3A6969","seeders":0,"leechers":1,"uploader":".BONE.","files":2,"time":1311740345,"description":"PLOT\n\nAfter graduating from Emory University, top student and athlete Christopher McCandless abandons his possessions, gives\nhis entire $24,000 savings account to charity and hitchhikes to Alaska to live in the wilderness. Along\nthe way, Christopher encounters a series of characters that shape his life.\n &lt;a href=&quot;\nhttp://www.imdb.com/title/tt0758758/&quot; rel=&quot;nofollow&quot; target=&quot;_NEW&quot;&gt;\nhttp://www.imdb.com/title/tt0758758/&lt;/a&gt;\n\n\nEncoded By .......: BigPerm1828\nRuntime ..........: 2h 28mn\nFile Size ........: 1.21 GB\nResolution .......: 718x352\nIMDb URL .........: http://www.imdb.com/title/tt0758758/\nGenre ............: Adventure,Biography,Drama\nLanguage .........: English\nCodec ID .........: mp4\nFormat : MPEG-4\nFormat profile : Base Media / Version 2\nCodec ID : mp42\nFile size : 1.21 GB\nDuration : 2h 28mn\nOverall bit rate : 1 173 Kbps\nVideo\nID : 1\nFormat : AVC\nFormat/Info : Advanced Video Codec\nFormat profile : &lt;a class=&quot;__cf_email__&quot; href=&quot;/cdn-cgi/l/email-protection&quot; data-cfemail=&quot;a6ebc7cfc8e6ea958896&quot;&gt;[email&amp;#160;protected]&lt;/a&gt;&lt;script cf-hash='f9e31' type=&quot;text/javascript&quot;&gt;\n/* &lt;![CDATA[ */!function(){try{var t=&quot;currentScript&quot;in document?document.currentScript:function(){for(var t=document.getElementsByTagName(&quot;script&quot;),e=t.length;e--;)if(t[e].getAttribute(&quot;cf-hash&quot;))return t[e]}();if(t&amp;&amp;t.previousSibling){var e,r,n,i,c=t.previousSibling,a=c.getAttribute(&quot;data-cfemail&quot;);if(a){for(e=&quot;&quot;,r=parseInt(a.substr(0,2),16),n=2;a.length-n;n+=2)i=parseInt(a.substr(n,2),16)^r,e+=String.fromCharCode(i);e=document.createTextNode(e),c.parentNode.replaceChild(e,c)}}}catch(u){}}();/* ]]&gt; */&lt;/script&gt;\nFormat settings, CABAC : Yes\nFormat settings, ReFrames : 2 frames\nCodec ID : avc1\nCodec ID/Info : Advanced Video Coding\nDuration : 2h 28mn\nBit rate mode : Variable\nBit rate : 1 009 Kbps\nWidth : 718 pixels\nHeight : 352 pixels\nDisplay aspect ratio : 2.40:1\nOriginal display aspect ratio : 2.40:1\nFrame rate mode : Variable\nFrame rate : 23.976 fps\nMinimum frame rate : 14.985 fps\nMaximum frame rate : 29.970 fps\nColor space : YUV\nChroma subsampling : 4:2:0\nBit depth : 8 bits\nScan type : Progressive\nBits/(Pixel*Frame) : 0.166\nStream size : 1.04 GiB (86%)\nWriting library : x264 core 79\nAudio\nID : 2\nFormat : AAC\nFormat/Info : Advanced Audio Codec\nFormat version : Version 4\nFormat profile : LC\nCodec ID : 40\nDuration : 2h 28mn\nBit rate mode : Variable\nBit rate : 159 Kbps\nMaximum bit rate : 262 Kbps\nChannel(s) : 2 channels\nChannel positions : Front: L R\nSampling rate : 48.0 KHz\nCompression mode : Lossy\nStream size : 169 MiB (14%)\nLanguage : English7\n &lt;a href=&quot;\nhttp://www.shotpix.com/images/48171452099090784428.png&quot; rel=&quot;nofollow&quot; target=&quot;_NEW&quot;&gt;\nhttp://www.shotpix.com/images/48171452099090784428.png&lt;/a&gt;\n &lt;a href=&quot;\nhttp://www.shotpix.com/images/05385340978829059625.png&quot; rel=&quot;nofollow&quot; target=&quot;_NEW&quot;&gt;\nhttp://www.shotpix.com/images/05385340978829059625.png&lt;/a&gt;\n &lt;a href=&quot;\nhttp://www.shotpix.com/images/12363686349639163918.png&quot; rel=&quot;nofollow&quot; target=&quot;_NEW&quot;&gt;\nhttp://www.shotpix.com/images/12363686349639163918.png&lt;/a&gt;\n &lt;a href=&quot;\nhttp://www.shotpix.com/images/68744294484510751767.png&quot; rel=&quot;nofollow&quot; target=&quot;_NEW&quot;&gt;\nhttp://www.shotpix.com/images/68744294484510751767.png&lt;/a&gt;","torrent":{"xt":"urn:btih:935a50b980338bc19ef903013967b082b01ec44c","amp;dn":"Into+The+Wild+2007+BigPerm+LKRG+Read+NFO","amp;tr":["udp%3A%2F%2Ftracker.openbittorrent.com%3A80","udp%3A%2F%2Fopen.demonii.com%3A1337","udp%3A%2F%2Ftracker.coppersurfer.tk%3A6969","udp%3A%2F%2Fexodus.desync.com%3A6969"],"infoHash":"935a50b980338bc19ef903013967b082b01ec44c","infoHashBuffer":{"type":"Buffer","data":[147,90,80,185,128,51,139,193,158,249,3,1,57,103,176,130,176,30,196,76]},"announce":[],"urlList":[]}}